# xmcd
#
# Track frame offsets:
#	150
#	15811
#	35047
#	56732
#	77486
#	94310
#	113987
#	135893
#	156709
#	171110
#
# Disc length: 2507 seconds
#
# Revision: 0
# Processed by: cddbd v1.5.2PL0 Copyright (c) Steve Scherf et al.
# Submitted via: EasyCDDAExtractor 2011.0.0.0
#
DISCID=7909c90a
DTITLE=Quoc Bao - Tinh Khuc Quoc Bao Q and B
DYEAR=2009
DGENRE=
TTITLE0=Mai Khoi - Tinh Ca Hong
TTITLE1=Ho Quynh Huong - Xa
TTITLE2=Quang Ly - Tinh Khuc
TTITLE3=Viet Thanh - Anh Yeu Em
TTITLE4=Ho Quynh Huong - Tinh Nhu Trai Chin Muon
TTITLE5=Tung Duong - Quynh
TTITLE6=Hoa T. Tran - Uoc Mong
TTITLE7=Ho Quynh Huong - Nam
TTITLE8=Hoa T. Tran - Dep Thuong Dau
TTITLE9=Mai Khoi ft. Bao Chan - Tinh Nhu Trai Chin Muon
EXTD=
EXTT0=
EXTT1=
EXTT2=
EXTT3=
EXTT4=
EXTT5=
EXTT6=
EXTT7=
EXTT8=
EXTT9=
PLAYORDER=
